<?xml version="1.0" encoding="UTF-8"?>
<svg id="Layer_1" xmlns="http://www.w3.org/2000/svg" version="1.1" viewBox="0 0 489 151">
  <!-- Generator: Adobe Illustrator 30.1.0, SVG Export Plug-In . SVG Version: 2.1.1 Build 65)  -->
  <defs>
    <style>
      .st0 {
        fill: #f87000;
      }

      .st1 {
        display: none;
        fill: #f2f2f2;
      }

      .st2 {
        fill: #333;
      }
    </style>
  </defs>
  <rect class="st1" x="-151.3" y="-324" width="800" height="800"/>
  <g>
    <g>
      <path class="st0" d="M133.6,134c-4.2,0-8.2-1.6-11.1-4.6-3-3-4.6-6.9-4.6-11.1s1.6-8.1,4.6-11.1c3-3,6.9-4.6,11.1-4.6s8.1,1.6,11.1,4.6c6.1,6.1,6.1,16.1,0,22.2s-6.9,4.6-11.1,4.6Z"/>
      <path class="st0" d="M48.2,50.2c-4.2,0-8.2-1.6-11.1-4.6-3-3-4.6-6.9-4.6-11.1s1.6-8.1,4.6-11.1c3-3,6.9-4.6,11.1-4.6s8.1,1.6,11.1,4.6c3,3,4.6,6.9,4.6,11.1s-1.6,8.2-4.6,11.1c-3,3-6.9,4.6-11.1,4.6Z"/>
      <path class="st0" d="M132.9,49.7c-4.2,0-8.2-1.6-11.1-4.6-6.1-6.1-6.1-16.1,0-22.2,3-3,6.9-4.6,11.1-4.6s8.1,1.6,11.1,4.6c6.1,6.1,6.1,16.1,0,22.2-3,3-6.9,4.6-11.1,4.6Z"/>
      <path class="st0" d="M48.6,134c-4.2,0-8.2-1.6-11.1-4.6-3-3-4.6-6.9-4.6-11.1,0-4.2,1.6-8.1,4.6-11.1.6-.6,1.3-1.2,2.2-1.8.3-.2.5-.3.8-.5.6-.3,1.2-.6,1.7-.9.3-.1.6-.3.9-.4.6-.2,1.2-.4,1.9-.6.1,0,.3,0,.4-.1,0,0,.2,0,.2,0l3.5-.2c.4,0,.9,0,1.4.1h.2c.1,0,.3,0,.4,0h.1s.2,0,.2,0h.1c.3,0,.5,0,.8,0,6,0,12-2.6,16.3-7,4.3-4.5,6.7-10.5,6.6-16.5v-.2s0-.2,0-.2c0-.2,0-.3,0-.5,0-.2,0-.4,0-.6v-.4c0-.3-.1-.6-.1-.9l.3-3.5c0,0,0-.2,0-.3v-.2c.2-.7.4-1.3.6-2,.1-.4.3-.6.4-.9.3-.6.6-1.2.9-1.7.1-.2.3-.5.5-.7.6-.9,1.2-1.6,1.8-2.2,3-3,6.9-4.6,11.1-4.6s8.2,1.6,11.1,4.6c6.1,6.1,6.1,16.1,0,22.2-.6.6-1.3,1.2-2.2,1.8-.3.2-.5.3-.8.5-.6.3-1.1.6-1.7.9-.3.1-.6.3-.9.4-.6.2-1.2.4-1.9.6h-.4c0,.1-.2.2-.3.2l-3.5.3c-.4,0-.8,0-1.3-.1h-.3c-.1,0-.3,0-.4,0h-.1s-.2,0-.2,0h-.1c-.3,0-.5,0-.8,0-6,0-12,2.6-16.3,7-4.3,4.5-6.7,10.5-6.6,16.5v.2s0,.2,0,.2c0,.2,0,.3,0,.5,0,.2,0,.4,0,.6,0,.1,0,.3,0,.5,0,.2,0,.5,0,.7h0c0,0-.3,3.5-.3,3.5,0,0-.1.5-.2.6-.2.7-.4,1.4-.6,1.9-.1.3-.2.6-.4.9-.3.6-.6,1.2-.9,1.8-.1.2-.3.5-.5.8-.6.8-1.2,1.6-1.8,2.2-3,3-6.9,4.6-11.1,4.6h0Z"/>
      <path class="st0" d="M91.1,134c-4.2,0-8.2-1.6-11.1-4.6-3-3-4.6-6.9-4.6-11.1,0-4.2,1.6-8.1,4.6-11.1.6-.6,1.3-1.2,2.2-1.8.2-.2.5-.3.7-.5.6-.3,1.1-.6,1.7-.9.3-.1.6-.3.9-.4.6-.2,1.2-.4,1.9-.6,0,0,.6-.2.6-.2l3.6-.3c.4,0,.9,0,1.3.1h.3c.2,0,.3,0,.5,0,0,0,.1,0,.2,0h.1s.1,0,.1,0c.3,0,.5,0,.8,0,6,0,12-2.6,16.3-7,4.3-4.5,6.7-10.5,6.5-16.5v-.7s0,0,0,0c0,0,0,0,0,0,0-.2,0-.3,0-.5v-.5c0-.3-.1-.5-.1-.8l.2-3.4c0,0,.1-.5.2-.6.2-.8.4-1.4.6-1.9.1-.3.2-.6.4-.9.3-.5.5-1.1.9-1.7h0c.1-.3.2-.5.4-.7.6-.9,1.2-1.6,1.8-2.2,3-3,6.9-4.6,11.1-4.6s8.1,1.6,11.1,4.6c6.1,6.1,6.1,16.1,0,22.2-.6.6-1.3,1.2-2.2,1.8-.2.1-.3.2-.5.3l-.3.2c-.5.3-1.1.6-1.7.9-.3.1-.6.3-.9.4-.5.2-1.2.4-1.9.6-.2,0-.3,0-.4.1,0,0-.2,0-.2,0l-3.5.2c-.5,0-1.1,0-1.6-.2-.2,0-.3,0-.5,0,0,0-.1,0-.2,0h-.3c-.3,0-.5,0-.8,0-6,0-12,2.6-16.3,7-4.3,4.5-6.7,10.5-6.5,16.5v.2s0,.2,0,.2c0,.2,0,.4,0,.5,0,.2,0,.4,0,.5,0,.1,0,.3,0,.5,0,.3,0,.5,0,.8l-.3,3.5c0,0-.2.5-.2.5-.2.7-.4,1.4-.6,2-.1.3-.2.6-.4.8h0c-.3.7-.6,1.2-.9,1.8-.2.3-.3.5-.5.8-.6.9-1.2,1.6-1.8,2.2-3,3-6.9,4.6-11.1,4.6h0Z"/>
      <path class="st0" d="M48.6,91.6c-4.2,0-8.2-1.6-11.1-4.6-3-3-4.6-6.9-4.6-11.1,0-4.2,1.6-8.1,4.6-11.1.6-.6,1.3-1.2,2.2-1.8.2-.2.5-.3.8-.5.5-.3,1.1-.6,1.7-.9.3-.1.6-.3.9-.4.6-.2,1.2-.4,1.9-.5h.4c0-.1.1-.2.2-.2l3.6-.3c.5,0,1,0,1.5.2h.1c.2,0,.3,0,.5,0,0,0,.1,0,.2,0h.2s.1,0,.1,0c.3,0,.5,0,.8,0,6,0,12-2.6,16.3-7,4.3-4.5,6.7-10.5,6.5-16.5v-.2s0-.2,0-.2c0-.2,0-.4,0-.6,0-.2,0-.3,0-.5v-.5c0-.3-.1-.6-.1-.9l.2-3.3h0c0-.2.1-.7.1-.7.2-.8.4-1.5.6-2,.1-.3.3-.6.4-.9.3-.6.6-1.1.9-1.7h0c.1-.3.3-.5.4-.8.6-.9,1.2-1.6,1.8-2.2,3-3,6.9-4.6,11.1-4.6s8.2,1.6,11.1,4.6c6.1,6.1,6.1,16.1,0,22.2-.6.6-1.3,1.2-2.2,1.8-.2.2-.4.3-.7.4h-.1c-.6.4-1.1.7-1.7,1-.3.1-.6.3-.9.4-.6.2-1.2.4-1.9.6-.1,0-.3,0-.4.1,0,0-.2,0-.2,0l-3.5.2c-.4,0-.9,0-1.4-.1h-.2c-.2,0-.3,0-.5,0,0,0-.1,0-.2,0h-.1s-.2,0-.2,0c-.3,0-.5,0-.8,0-6,0-12,2.6-16.3,7-4.3,4.5-6.7,10.5-6.6,16.5v.2s0,.2,0,.2c0,.2,0,.4,0,.5,0,.2,0,.4,0,.5,0,.1,0,.3,0,.5,0,.3,0,.5,0,.8l-.3,3.4c0,0,0,.2,0,.3v.3c-.3.8-.4,1.4-.7,2-.1.3-.3.6-.4.9-.3.6-.6,1.1-.9,1.7-.2.3-.3.5-.5.8-.6.9-1.2,1.6-1.8,2.2-3,3-6.9,4.6-11.1,4.6h0Z"/>
    </g>
    <g>
      <path class="st2" d="M177.5,62.9h-11.4v-8h32.5v8h-11.5v34.2h-9.5v-34.2h0Z"/>
      <path class="st2" d="M228.8,79.3h-15.5v10h17.4v7.8h-26.9v-42.2h26v7.8h-16.5v8.8h15.5v7.8h0Z"/>
      <path class="st2" d="M268.1,96c-1.7.8-5.7,1.8-10.8,1.8-14.6,0-22.1-9.1-22.1-21.2s10.3-22.4,23.1-22.4,8.7.9,10.4,1.9l-2,7.5c-1.9-.8-4.6-1.6-8-1.6-7.5,0-13.4,4.6-13.4,14s5,13.8,13.5,13.8,6.1-.6,8-1.4l1.4,7.5Z"/>
      <path class="st2" d="M284,54.9v16.2h15.7v-16.2h9.5v42.2h-9.5v-17.7h-15.7v17.7h-9.5v-42.2h9.5Z"/>
      <path class="st2" d="M318.1,54.9h5.5v37.7h18v4.6h-23.6v-42.2h0Z"/>
      <path class="st2" d="M381.4,75.6c0,14.5-8.8,22.2-19.6,22.2s-19-8.7-19-21.5,8.3-22.2,19.5-22.2c11.6,0,19,8.8,19,21.4ZM348.5,76.2c0,9.1,4.9,17.2,13.5,17.2s13.5-8,13.5-17.5-4.4-17.2-13.5-17.2c-9.1,0-13.6,8.4-13.6,17.6Z"/>
      <path class="st2" d="M420.7,95.3c-2.4.9-7.3,2.3-13,2.3s-11.7-1.6-15.8-5.6c-3.6-3.5-5.9-9.1-5.9-15.7,0-12.6,8.7-21.8,22.9-21.8s8.8,1.1,10.6,1.9l-1.4,4.4c-2.3-1.1-5.1-1.8-9.3-1.8-10.3,0-17,6.4-17,17s6.4,17,16.3,17,6-.5,7.3-1.1v-12.6h-8.5v-4.4h13.9v20.3h0Z"/>
      <path class="st2" d="M465,75.6c0,14.5-8.8,22.2-19.6,22.2s-19-8.7-19-21.5,8.3-22.2,19.5-22.2c11.6,0,19,8.8,19,21.4ZM432.2,76.2c0,9.1,4.9,17.2,13.5,17.2s13.5-8,13.5-17.5-4.4-17.2-13.5-17.2-13.6,8.4-13.6,17.6Z"/>
    </g>
  </g>
</svg>